<svg xmlns="http://www.w3.org/2000/svg" xmlns:xlink="http://www.w3.org/1999/xlink" width="500" zoomAndPan="magnify" viewBox="0 0 375 74.999997" height="100" preserveAspectRatio="xMidYMid meet" version="1.0"><defs><g/><clipPath id="0f47ade072"><path d="M 37.886719 14.949219 L 106.886719 14.949219 L 106.886719 59.949219 L 37.886719 59.949219 Z M 37.886719 14.949219 " clip-rule="nonzero"/></clipPath><clipPath id="8db43d3838"><path d="M 87 14.949219 L 107.660156 14.949219 L 107.660156 61.449219 L 87 61.449219 Z M 87 14.949219 " clip-rule="nonzero"/></clipPath><clipPath id="216930300b"><path d="M 95 22 L 107.660156 22 L 107.660156 54 L 95 54 Z M 95 22 " clip-rule="nonzero"/></clipPath><clipPath id="9fb20d2242"><path d="M 72.410156 14.949219 L 86 14.949219 L 86 61.449219 L 72.410156 61.449219 Z M 72.410156 14.949219 " clip-rule="nonzero"/></clipPath></defs><g clip-path="url(#0f47ade072)"><path fill="#fafafa" d="M 189.589844 90.390625 C 188.640625 88.640625 187.40625 87.121094 185.890625 85.824219 C 184.375 84.53125 182.675781 83.550781 180.792969 82.882812 C 179.355469 83.3125 177.894531 83.65625 176.414062 83.914062 C 173.132812 84.542969 170.035156 85.136719 167.09375 88.03125 C 164.144531 90.925781 163.128906 93.605469 162.050781 96.441406 C 161.390625 98.1875 160.703125 99.992188 159.550781 101.792969 C 159.714844 102.6875 159.980469 103.554688 160.339844 104.390625 C 160.917969 105.777344 161.675781 107.054688 162.613281 108.230469 C 163.554688 109.40625 164.636719 110.429688 165.859375 111.304688 C 167.085938 112.179688 168.410156 112.867188 169.828125 113.375 C 171.246094 113.882812 172.710938 114.183594 174.214844 114.285156 C 175.71875 114.382812 177.207031 114.277344 178.683594 113.960938 C 180.15625 113.648438 181.558594 113.136719 182.890625 112.433594 C 184.222656 111.726562 185.429688 110.855469 186.519531 109.8125 C 187.605469 108.773438 188.527344 107.605469 189.285156 106.308594 C 189.472656 105.992188 189.648438 105.671875 189.8125 105.34375 C 190.75 103.492188 191.308594 101.539062 191.480469 99.472656 C 191.519531 99.019531 191.550781 98.5625 191.550781 98.097656 C 191.554688 95.359375 190.902344 92.792969 189.589844 90.390625 Z M 183.9375 100.367188 C 183.835938 100.722656 183.714844 101.066406 183.570312 101.40625 C 183.425781 101.746094 183.261719 102.078125 183.078125 102.394531 C 182.890625 102.714844 182.6875 103.019531 182.460938 103.316406 C 182.238281 103.609375 181.996094 103.886719 181.734375 104.148438 C 181.476562 104.414062 181.203125 104.660156 180.910156 104.886719 C 180.621094 105.117188 180.316406 105.328125 180 105.515625 C 179.683594 105.707031 179.355469 105.878906 179.015625 106.027344 C 178.679688 106.179688 178.332031 106.304688 177.976562 106.414062 C 177.621094 106.519531 177.261719 106.601562 176.898438 106.664062 C 176.53125 106.726562 176.164062 106.765625 175.792969 106.78125 C 175.421875 106.796875 175.054688 106.789062 174.683594 106.757812 C 174.316406 106.726562 173.949219 106.671875 173.585938 106.597656 C 173.226562 106.519531 172.867188 106.421875 172.519531 106.300781 C 172.167969 106.179688 171.828125 106.039062 171.496094 105.875 C 171.164062 105.710938 170.84375 105.527344 170.535156 105.324219 C 170.226562 105.121094 169.929688 104.898438 169.652344 104.65625 C 169.371094 104.417969 169.105469 104.160156 168.855469 103.886719 C 168.609375 103.613281 168.378906 103.324219 168.167969 103.023438 C 167.953125 102.71875 167.761719 102.40625 167.589844 102.078125 C 167.417969 101.753906 167.265625 101.417969 167.136719 101.070312 C 167.007812 100.726562 166.898438 100.375 166.8125 100.015625 C 166.726562 99.65625 166.664062 99.292969 166.625 98.925781 C 166.585938 98.558594 166.570312 98.191406 166.574219 97.824219 C 166.582031 97.457031 166.613281 97.089844 166.664062 96.722656 C 166.71875 96.359375 166.792969 96 166.890625 95.644531 C 166.992188 95.289062 167.109375 94.941406 167.253906 94.597656 C 167.394531 94.257812 167.558594 93.929688 167.742188 93.609375 C 167.925781 93.289062 168.128906 92.980469 168.351562 92.6875 C 168.574219 92.390625 168.816406 92.113281 169.074219 91.847656 C 169.332031 91.582031 169.605469 91.335938 169.894531 91.105469 C 170.183594 90.875 170.488281 90.664062 170.804688 90.472656 C 171.121094 90.28125 171.445312 90.105469 171.785156 89.957031 C 172.121094 89.804688 172.46875 89.675781 172.820312 89.566406 C 173.175781 89.457031 173.535156 89.371094 173.898438 89.308594 C 174.265625 89.246094 174.632812 89.203125 175.003906 89.1875 C 175.371094 89.167969 175.742188 89.175781 176.113281 89.203125 C 176.480469 89.234375 176.847656 89.285156 177.210938 89.359375 C 177.574219 89.433594 177.929688 89.53125 178.28125 89.648438 C 178.628906 89.769531 178.972656 89.910156 179.304688 90.070312 C 179.636719 90.234375 179.960938 90.414062 180.269531 90.617188 C 180.578125 90.820312 180.875 91.039062 181.15625 91.277344 C 181.4375 91.519531 181.703125 91.773438 181.953125 92.046875 C 182.203125 92.320312 182.4375 92.605469 182.648438 92.90625 C 182.863281 93.207031 183.058594 93.519531 183.230469 93.847656 C 183.40625 94.171875 183.558594 94.507812 183.691406 94.851562 C 183.820312 95.195312 183.929688 95.546875 184.019531 95.90625 C 184.105469 96.265625 184.171875 96.628906 184.210938 96.992188 C 184.253906 97.359375 184.273438 97.726562 184.265625 98.097656 C 184.257812 98.867188 184.144531 99.625 183.9375 100.367188 Z M 168.132812 85.570312 C 169.039062 84.941406 170.007812 84.425781 171.039062 84.03125 C 171.367188 83.902344 171.695312 83.789062 172.023438 83.683594 C 173.332031 83.289062 174.660156 82.976562 176.011719 82.742188 C 176.347656 82.679688 176.683594 82.613281 177.023438 82.546875 C 177.496094 82.453125 177.976562 82.351562 178.453125 82.242188 C 178.65625 82.195312 178.859375 82.152344 179.066406 82.101562 C 180.128906 81.847656 181.164062 81.507812 182.171875 81.082031 C 182.828125 80.804688 183.460938 80.480469 184.074219 80.113281 C 184.335938 79.957031 184.570312 79.804688 184.78125 79.65625 C 185.335938 79.292969 185.828125 78.859375 186.257812 78.355469 C 184.90625 77.359375 183.449219 76.550781 181.882812 75.941406 C 181.753906 75.886719 181.625 75.832031 181.492188 75.785156 C 180.792969 75.515625 180.082031 75.289062 179.359375 75.097656 C 179.21875 75.058594 179.078125 75.027344 178.941406 74.996094 C 178.179688 74.804688 177.40625 74.660156 176.628906 74.554688 C 175.828125 74.460938 175.023438 74.410156 174.21875 74.402344 C 174.066406 74.398438 173.910156 74.394531 173.757812 74.394531 C 173.125 74.402344 172.488281 74.425781 171.84375 74.488281 C 169.253906 74.746094 166.796875 75.460938 164.472656 76.625 L 165.804688 74.699219 L 166.460938 73.75 C 167.09375 72.835938 167.476562 71.828125 167.609375 70.726562 C 167.742188 69.621094 167.613281 68.550781 167.214844 67.511719 L 158.503906 44.78125 L 163.871094 45.628906 C 164.148438 45.671875 164.417969 45.65625 164.6875 45.582031 C 164.957031 45.507812 165.195312 45.378906 165.410156 45.199219 C 165.621094 45.019531 165.785156 44.800781 165.902344 44.550781 C 166.019531 44.296875 166.078125 44.03125 166.078125 43.753906 L 166.078125 33.777344 C 166.078125 33.496094 166.019531 33.234375 165.902344 32.980469 C 165.785156 32.730469 165.621094 32.511719 165.410156 32.332031 C 165.195312 32.152344 164.957031 32.023438 164.6875 31.949219 C 164.417969 31.875 164.148438 31.855469 163.871094 31.902344 L 151.5625 33.851562 C 151.300781 33.890625 151.050781 33.976562 150.820312 34.105469 C 150.585938 34.238281 150.386719 34.402344 150.210938 34.605469 C 150.039062 34.804688 149.90625 35.03125 149.816406 35.277344 C 149.722656 35.527344 149.675781 35.785156 149.675781 36.050781 L 149.675781 37.890625 C 149.488281 37.851562 149.296875 37.824219 149.105469 37.816406 L 139.292969 37.691406 C 138.601562 37.667969 138.03125 37.386719 137.59375 36.847656 L 128.710938 25.957031 C 123.796875 19.960938 115.410156 21.828125 113.832031 29.40625 L 109.214844 46.679688 C 109.066406 47.382812 108.984375 48.097656 108.972656 48.816406 C 108.957031 49.535156 109.007812 50.25 109.125 50.957031 C 109.246094 51.667969 109.429688 52.359375 109.675781 53.035156 C 109.925781 53.710938 110.230469 54.359375 110.601562 54.976562 C 110.96875 55.59375 111.394531 56.175781 111.871094 56.714844 C 112.347656 57.253906 112.871094 57.746094 113.4375 58.191406 C 114.007812 58.632812 114.613281 59.019531 115.253906 59.351562 C 115.894531 59.683594 116.5625 59.953125 117.253906 60.160156 L 88.734375 60.160156 C 88.59375 60.160156 88.460938 60.1875 88.332031 60.242188 C 88.203125 60.296875 88.085938 60.371094 87.988281 60.46875 C 87.890625 60.566406 87.8125 60.683594 87.757812 60.8125 C 87.707031 60.9375 87.679688 61.074219 87.679688 61.210938 L 87.679688 65.164062 C 87.679688 65.300781 87.707031 65.4375 87.761719 65.5625 C 87.8125 65.691406 87.890625 65.804688 87.988281 65.90625 C 88.085938 66.003906 88.203125 66.078125 88.332031 66.132812 C 88.460938 66.1875 88.59375 66.210938 88.734375 66.210938 L 128.269531 66.210938 C 128.40625 66.210938 128.542969 66.1875 128.671875 66.132812 C 128.800781 66.078125 128.914062 66.003906 129.015625 65.90625 C 129.113281 65.808594 129.1875 65.691406 129.242188 65.5625 C 129.296875 65.4375 129.324219 65.300781 129.324219 65.164062 L 129.324219 62.035156 L 134.714844 62.808594 L 130.449219 81.695312 C 130.398438 81.976562 130.375 82.257812 130.382812 82.542969 C 130.386719 82.828125 130.421875 83.109375 130.480469 83.386719 C 130.542969 83.664062 130.628906 83.933594 130.742188 84.195312 C 130.855469 84.457031 130.992188 84.707031 131.15625 84.941406 C 131.316406 85.175781 131.5 85.390625 131.707031 85.589844 C 131.910156 85.789062 132.132812 85.96875 132.371094 86.125 C 132.609375 86.277344 132.863281 86.410156 133.128906 86.519531 C 133.394531 86.625 133.667969 86.707031 133.945312 86.757812 C 134.226562 86.8125 134.511719 86.839844 134.796875 86.839844 C 135.082031 86.839844 135.367188 86.808594 135.648438 86.753906 C 135.929688 86.699219 136.199219 86.617188 136.464844 86.507812 C 136.730469 86.398438 136.980469 86.265625 137.21875 86.105469 C 137.457031 85.949219 137.679688 85.769531 137.882812 85.570312 C 138.085938 85.371094 138.265625 85.152344 138.425781 84.914062 C 138.585938 84.679688 138.722656 84.429688 138.835938 84.167969 C 138.945312 83.90625 139.03125 83.636719 139.089844 83.359375 L 144.363281 62.515625 C 144.46875 62.011719 144.527344 61.507812 144.53125 60.992188 C 144.539062 60.480469 144.496094 59.972656 144.398438 59.46875 C 144.304688 58.964844 144.160156 58.476562 143.96875 58 C 143.773438 57.523438 143.539062 57.070312 143.253906 56.644531 C 142.972656 56.214844 142.648438 55.816406 142.289062 55.453125 C 141.925781 55.089844 141.53125 54.761719 141.105469 54.476562 C 140.675781 54.1875 140.226562 53.945312 139.75 53.75 C 139.277344 53.550781 138.785156 53.402344 138.28125 53.300781 C 133.84375 52.410156 128.328125 51.339844 125.460938 50.789062 C 125.203125 50.738281 124.96875 50.640625 124.753906 50.496094 C 124.539062 50.351562 124.359375 50.167969 124.21875 49.953125 C 124.074219 49.734375 123.980469 49.5 123.9375 49.246094 C 123.890625 48.988281 123.898438 48.734375 123.957031 48.484375 L 126.632812 36.636719 L 131.648438 42.550781 C 132.5 43.589844 133.539062 44.390625 134.765625 44.945312 C 135.992188 45.5 137.28125 45.753906 138.628906 45.703125 L 149.105469 45.132812 C 149.648438 45.113281 150.160156 44.980469 150.640625 44.734375 L 154.398438 65.542969 C 154.664062 67.011719 154.695312 68.488281 154.492188 69.972656 C 154.289062 71.453125 153.859375 72.867188 153.207031 74.210938 L 147.957031 85.035156 C 147.667969 85.632812 147.300781 86.175781 146.859375 86.667969 C 146.414062 87.164062 145.910156 87.585938 145.347656 87.9375 C 144.785156 88.289062 144.183594 88.554688 143.546875 88.738281 C 142.90625 88.921875 142.253906 89.015625 141.589844 89.015625 L 131.640625 89.015625 C 131.136719 89.015625 130.640625 88.960938 130.148438 88.847656 C 129.65625 88.738281 129.183594 88.578125 128.730469 88.363281 C 128.273438 88.148438 127.847656 87.886719 127.449219 87.582031 C 127.054688 87.273438 126.695312 86.925781 126.375 86.539062 C 126.054688 86.152344 125.785156 85.734375 125.558594 85.285156 C 125.332031 84.839844 125.15625 84.371094 125.03125 83.886719 C 124.910156 83.398438 124.84375 82.90625 124.828125 82.40625 C 124.816406 81.90625 124.859375 81.410156 124.957031 80.917969 L 127.578125 67.742188 L 89.90625 67.742188 C 89.375 67.738281 88.886719 67.878906 88.4375 68.15625 C 88.085938 68.375 87.609375 68.679688 87.042969 69.066406 C 86.726562 69.28125 86.378906 69.390625 86 69.394531 L 69.894531 69.394531 C 69.636719 69.394531 69.390625 69.441406 69.152344 69.542969 C 68.914062 69.640625 68.703125 69.78125 68.519531 69.960938 C 68.339844 70.140625 68.199219 70.351562 68.097656 70.589844 C 68 70.824219 67.953125 71.074219 67.953125 71.328125 C 67.953125 71.585938 68 71.832031 68.097656 72.070312 C 68.199219 72.304688 68.339844 72.515625 68.519531 72.695312 C 68.703125 72.878906 68.914062 73.019531 69.152344 73.117188 C 69.390625 73.214844 69.636719 73.261719 69.894531 73.261719 L 88.289062 73.261719 C 88.546875 73.261719 88.792969 73.3125 89.03125 73.410156 C 89.269531 73.507812 89.480469 73.648438 89.664062 73.832031 C 89.84375 74.011719 89.984375 74.222656 90.082031 74.457031 C 90.183594 74.695312 90.230469 74.941406 90.230469 75.199219 C 90.230469 75.453125 90.183594 75.703125 90.082031 75.9375 C 89.984375 76.175781 89.84375 76.386719 89.664062 76.566406 C 89.480469 76.746094 89.269531 76.886719 89.03125 76.984375 C 88.792969 77.082031 88.546875 77.132812 88.289062 77.132812 L 41.925781 77.132812 C 41.667969 77.132812 41.417969 77.183594 41.179688 77.28125 C 40.941406 77.378906 40.734375 77.519531 40.550781 77.699219 C 40.367188 77.882812 40.226562 78.089844 40.128906 78.328125 C 40.03125 78.5625 39.980469 78.8125 39.980469 79.066406 C 39.980469 79.324219 40.03125 79.570312 40.128906 79.808594 C 40.226562 80.046875 40.367188 80.253906 40.550781 80.4375 C 40.734375 80.617188 40.941406 80.757812 41.179688 80.855469 C 41.417969 80.953125 41.667969 81.003906 41.925781 81.003906 L 79.054688 81.003906 C 79.3125 81 79.5625 81.046875 79.804688 81.144531 C 80.042969 81.242188 80.257812 81.378906 80.441406 81.5625 C 80.625 81.742188 80.765625 81.953125 80.867188 82.191406 C 80.964844 82.429688 81.015625 82.679688 81.015625 82.9375 C 81.015625 83.195312 80.964844 83.441406 80.867188 83.679688 C 80.765625 83.917969 80.625 84.128906 80.441406 84.3125 C 80.257812 84.492188 80.042969 84.632812 79.804688 84.730469 C 79.5625 84.828125 79.3125 84.875 79.054688 84.871094 L 55.246094 84.871094 C 54.988281 84.871094 54.738281 84.921875 54.5 85.019531 C 54.261719 85.117188 54.050781 85.257812 53.871094 85.4375 C 53.6875 85.621094 53.546875 85.828125 53.449219 86.066406 C 53.351562 86.300781 53.300781 86.550781 53.300781 86.804688 C 53.300781 87.0625 53.351562 87.308594 53.449219 87.546875 C 53.546875 87.785156 53.6875 87.992188 53.871094 88.175781 C 54.050781 88.355469 54.261719 88.496094 54.5 88.59375 C 54.738281 88.691406 54.988281 88.742188 55.246094 88.742188 L 71.316406 88.742188 C 70.144531 92.089844 69.558594 95.542969 69.5625 99.089844 L 75.886719 99.089844 C 75.886719 99.125 75.878906 99.164062 75.878906 99.203125 C 75.878906 99.636719 75.90625 100.0625 75.941406 100.484375 C 76.089844 102.253906 76.539062 103.945312 77.289062 105.554688 C 78.039062 107.167969 79.046875 108.597656 80.308594 109.851562 C 80.714844 110.261719 81.144531 110.644531 81.59375 111.003906 C 82.042969 111.363281 82.511719 111.695312 82.996094 112 C 83.484375 112.304688 83.988281 112.582031 84.507812 112.832031 C 85.027344 113.078125 85.558594 113.296875 86.105469 113.484375 C 86.648438 113.671875 87.203125 113.828125 87.765625 113.949219 C 88.328125 114.074219 88.898438 114.164062 89.46875 114.222656 C 90.042969 114.285156 90.617188 114.308594 91.195312 114.304688 C 91.769531 114.296875 92.34375 114.257812 92.917969 114.183594 C 93.488281 114.113281 94.054688 114.007812 94.613281 113.871094 C 95.171875 113.734375 95.722656 113.566406 96.261719 113.363281 C 96.804688 113.164062 97.328125 112.933594 97.84375 112.675781 C 98.355469 112.414062 98.855469 112.125 99.335938 111.808594 C 99.816406 111.492188 100.273438 111.148438 100.714844 110.78125 C 101.15625 110.410156 101.574219 110.015625 101.96875 109.601562 C 102.367188 109.183594 102.734375 108.742188 103.082031 108.285156 C 103.425781 107.824219 103.742188 107.347656 104.03125 106.851562 C 104.207031 106.558594 104.371094 106.257812 104.527344 105.953125 C 105.398438 104.230469 105.917969 102.40625 106.078125 100.484375 C 106.117188 100.0625 106.144531 99.636719 106.144531 99.203125 C 106.144531 99.164062 106.136719 99.128906 106.136719 99.089844 L 143.074219 99.089844 C 143.972656 99.078125 144.855469 98.964844 145.726562 98.746094 C 146.601562 98.523438 147.433594 98.207031 148.230469 97.792969 C 149.027344 97.375 149.761719 96.871094 150.4375 96.28125 C 151.113281 95.691406 151.710938 95.03125 152.230469 94.300781 L 152.859375 93.390625 C 152.722656 94.769531 152.722656 96.152344 152.859375 97.53125 C 152.917969 98.136719 153.019531 98.722656 153.128906 99.308594 C 153.460938 101.101562 154.019531 102.824219 154.800781 104.472656 C 155.0625 104.359375 155.3125 104.226562 155.554688 104.074219 C 155.933594 103.839844 156.292969 103.578125 156.632812 103.289062 C 157.09375 102.894531 157.515625 102.464844 157.894531 101.992188 C 158.113281 101.71875 158.320312 101.429688 158.511719 101.132812 C 158.761719 100.742188 158.984375 100.347656 159.191406 99.957031 C 161.378906 95.855469 161.621094 91.683594 166.226562 87.15625 C 166.816406 86.574219 167.453125 86.042969 168.132812 85.570312 Z M 99.359375 99.203125 C 99.351562 99.742188 99.289062 100.277344 99.179688 100.804688 C 99.066406 101.335938 98.902344 101.847656 98.6875 102.34375 C 98.476562 102.84375 98.214844 103.3125 97.910156 103.761719 C 97.605469 104.207031 97.257812 104.621094 96.871094 105 C 96.484375 105.378906 96.066406 105.71875 95.613281 106.015625 C 95.160156 106.316406 94.679688 106.566406 94.179688 106.769531 C 93.675781 106.976562 93.160156 107.132812 92.625 107.234375 C 92.09375 107.339844 91.554688 107.390625 91.011719 107.390625 C 90.46875 107.390625 89.929688 107.339844 89.398438 107.234375 C 88.863281 107.132812 88.347656 106.976562 87.84375 106.769531 C 87.34375 106.566406 86.863281 106.316406 86.410156 106.015625 C 85.957031 105.71875 85.539062 105.378906 85.152344 105 C 84.765625 104.621094 84.417969 104.207031 84.113281 103.761719 C 83.804688 103.3125 83.546875 102.84375 83.332031 102.34375 C 83.121094 101.847656 82.957031 101.335938 82.84375 100.804688 C 82.730469 100.277344 82.671875 99.742188 82.664062 99.203125 C 82.664062 99.164062 82.675781 99.128906 82.675781 99.089844 L 99.347656 99.089844 C 99.347656 99.128906 99.359375 99.164062 99.359375 99.203125 Z M 119.15625 17.035156 C 118.949219 15.480469 118.535156 12.214844 118.578125 11.363281 C 118.855469 5.414062 123.03125 0.769531 129.90625 1.089844 C 130.480469 1.113281 131.050781 1.1875 131.613281 1.304688 C 132.175781 1.421875 132.726562 1.582031 133.265625 1.785156 C 133.800781 1.988281 134.320312 2.234375 134.820312 2.519531 C 135.316406 2.804688 135.789062 3.128906 136.234375 3.492188 C 136.683594 3.851562 137.097656 4.246094 137.480469 4.671875 C 137.867188 5.097656 138.214844 5.554688 138.523438 6.035156 C 138.835938 6.515625 139.105469 7.019531 139.335938 7.546875 C 139.566406 8.070312 139.753906 8.609375 139.898438 9.164062 L 129.367188 8.675781 C 129.222656 8.671875 129.085938 8.691406 128.949219 8.742188 C 128.8125 8.789062 128.691406 8.863281 128.582031 8.960938 C 128.476562 9.054688 128.390625 9.171875 128.332031 9.300781 C 128.269531 9.429688 128.234375 9.566406 128.226562 9.710938 L 128.0625 13.257812 C 128.046875 13.597656 128.136719 13.90625 128.328125 14.1875 C 128.523438 14.464844 128.78125 14.65625 129.105469 14.761719 L 139.460938 18.117188 C 138.808594 20.035156 137.867188 21.800781 136.636719 23.414062 C 136.445312 23.664062 136.199219 23.832031 135.894531 23.917969 C 135.59375 24.003906 135.296875 23.988281 135 23.875 L 120.054688 18.164062 C 119.8125 18.074219 119.609375 17.925781 119.449219 17.722656 C 119.289062 17.519531 119.191406 17.289062 119.15625 17.035156 Z M 59 39.484375 L 39.933594 39.484375 C 39.65625 39.484375 39.394531 39.429688 39.140625 39.316406 C 38.890625 39.207031 38.671875 39.046875 38.488281 38.84375 C 38.304688 38.640625 38.167969 38.410156 38.082031 38.148438 C 38 37.886719 37.96875 37.621094 38 37.347656 C 38.097656 36.34375 39.027344 35.613281 40.042969 35.613281 L 63.984375 35.613281 C 64.257812 35.613281 64.523438 35.558594 64.773438 35.449219 C 65.023438 35.335938 65.242188 35.179688 65.425781 34.976562 C 65.613281 34.773438 65.746094 34.539062 65.832031 34.28125 C 65.917969 34.019531 65.945312 33.753906 65.917969 33.480469 C 65.816406 32.472656 64.890625 31.746094 63.871094 31.746094 L 44.691406 31.746094 C 44.433594 31.746094 44.1875 31.695312 43.949219 31.597656 C 43.710938 31.5 43.5 31.359375 43.316406 31.179688 C 43.136719 30.996094 42.996094 30.789062 42.894531 30.550781 C 42.796875 30.3125 42.75 30.066406 42.75 29.808594 C 42.75 29.554688 42.796875 29.308594 42.894531 29.070312 C 42.996094 28.832031 43.136719 28.625 43.316406 28.441406 C 43.5 28.261719 43.710938 28.121094 43.949219 28.023438 C 44.1875 27.925781 44.433594 27.875 44.691406 27.875 L 63.984375 27.875 C 64.257812 27.875 64.523438 27.820312 64.773438 27.707031 C 65.023438 27.597656 65.242188 27.441406 65.425781 27.238281 C 65.613281 27.035156 65.746094 26.800781 65.832031 26.539062 C 65.917969 26.28125 65.945312 26.015625 65.917969 25.742188 C 65.816406 24.734375 64.890625 24.007812 63.871094 24.007812 L 50.46875 24.007812 C 50.195312 24.007812 49.933594 23.949219 49.679688 23.839844 C 49.429688 23.726562 49.210938 23.570312 49.027344 23.367188 C 48.84375 23.164062 48.707031 22.933594 48.621094 22.671875 C 48.535156 22.410156 48.507812 22.144531 48.535156 21.871094 C 48.636719 20.867188 49.5625 20.136719 50.582031 20.136719 L 59 20.136719 L 59 17.914062 C 59 17.660156 59.046875 17.417969 59.144531 17.179688 C 59.242188 16.945312 59.382812 16.738281 59.5625 16.558594 C 59.746094 16.378906 59.953125 16.242188 60.1875 16.144531 C 60.425781 16.046875 60.671875 16 60.925781 16 L 103.933594 16 C 104.191406 16 104.4375 16.046875 104.671875 16.144531 C 104.90625 16.242188 105.117188 16.378906 105.296875 16.558594 C 105.476562 16.738281 105.617188 16.945312 105.714844 17.179688 C 105.8125 17.417969 105.859375 17.660156 105.859375 17.914062 L 105.859375 55.300781 C 105.859375 55.65625 105.792969 55.996094 105.65625 56.324219 C 105.519531 56.65625 105.324219 56.945312 105.070312 57.195312 C 104.820312 57.449219 104.527344 57.640625 104.195312 57.777344 C 103.867188 57.914062 103.523438 57.980469 103.164062 57.980469 L 60.925781 57.980469 C 60.671875 57.980469 60.425781 57.933594 60.1875 57.835938 C 59.953125 57.738281 59.746094 57.601562 59.5625 57.421875 C 59.382812 57.242188 59.242188 57.03125 59.144531 56.796875 C 59.046875 56.5625 59 56.320312 59 56.066406 L 59 43.351562 L 63.984375 43.351562 C 64.257812 43.351562 64.523438 43.296875 64.773438 43.1875 C 65.023438 43.074219 65.242188 42.917969 65.425781 42.714844 C 65.613281 42.511719 65.746094 42.277344 65.832031 42.019531 C 65.917969 41.757812 65.945312 41.492188 65.917969 41.21875 C 65.816406 40.210938 64.890625 39.484375 63.875 39.484375 Z M 59 39.484375 " fill-opacity="1" fill-rule="nonzero"/></g><g clip-path="url(#8db43d3838)"><path fill="#b80b00" d="M 111.035156 14.949219 C 98.234375 14.949219 87.863281 25.359375 87.863281 38.199219 C 87.863281 51.042969 98.234375 61.449219 111.035156 61.449219 C 123.832031 61.449219 134.207031 51.042969 134.207031 38.199219 C 134.207031 25.359375 123.832031 14.949219 111.035156 14.949219 Z M 111.035156 56.285156 C 101.082031 56.285156 93.011719 48.191406 93.011719 38.199219 C 93.011719 28.210938 101.082031 20.117188 111.035156 20.117188 C 120.988281 20.117188 129.054688 28.210938 129.054688 38.199219 C 129.054688 48.191406 120.988281 56.285156 111.035156 56.285156 Z M 111.035156 56.285156 " fill-opacity="1" fill-rule="nonzero"/></g><g clip-path="url(#216930300b)"><path fill="#b80b00" d="M 126.480469 38.199219 C 126.480469 39.21875 126.382812 40.226562 126.183594 41.222656 C 125.988281 42.222656 125.695312 43.191406 125.304688 44.132812 C 124.917969 45.070312 124.441406 45.964844 123.878906 46.8125 C 123.316406 47.65625 122.675781 48.441406 121.957031 49.160156 C 121.238281 49.878906 120.460938 50.523438 119.617188 51.085938 C 118.773438 51.652344 117.882812 52.128906 116.945312 52.519531 C 116.007812 52.910156 115.042969 53.203125 114.046875 53.402344 C 113.054688 53.601562 112.046875 53.699219 111.035156 53.699219 C 110.019531 53.699219 109.015625 53.601562 108.019531 53.402344 C 107.023438 53.203125 106.058594 52.910156 105.121094 52.519531 C 104.183594 52.128906 103.296875 51.652344 102.453125 51.085938 C 101.609375 50.523438 100.828125 49.878906 100.109375 49.160156 C 99.394531 48.441406 98.753906 47.65625 98.191406 46.8125 C 97.625 45.964844 97.148438 45.070312 96.761719 44.132812 C 96.375 43.191406 96.082031 42.222656 95.882812 41.222656 C 95.683594 40.226562 95.585938 39.21875 95.585938 38.199219 C 95.585938 37.183594 95.683594 36.175781 95.882812 35.175781 C 96.082031 34.179688 96.375 33.207031 96.761719 32.269531 C 97.148438 31.328125 97.625 30.433594 98.191406 29.589844 C 98.753906 28.742188 99.394531 27.960938 100.109375 27.238281 C 100.828125 26.519531 101.609375 25.878906 102.453125 25.3125 C 103.296875 24.746094 104.183594 24.269531 105.121094 23.878906 C 106.058594 23.492188 107.023438 23.195312 108.019531 22.996094 C 109.015625 22.800781 110.019531 22.699219 111.035156 22.699219 C 112.046875 22.699219 113.054688 22.800781 114.046875 22.996094 C 115.042969 23.195312 116.007812 23.492188 116.945312 23.878906 C 117.882812 24.269531 118.773438 24.746094 119.617188 25.3125 C 120.460938 25.878906 121.238281 26.519531 121.957031 27.238281 C 122.675781 27.960938 123.316406 28.742188 123.878906 29.589844 C 124.441406 30.433594 124.917969 31.328125 125.304688 32.269531 C 125.695312 33.207031 125.988281 34.179688 126.183594 35.175781 C 126.382812 36.175781 126.480469 37.183594 126.480469 38.199219 Z M 126.480469 38.199219 " fill-opacity="1" fill-rule="nonzero"/></g><g clip-path="url(#9fb20d2242)"><path fill="#b80b00" d="M 82.714844 14.949219 L 82.714844 27.867188 L 80.136719 27.867188 L 80.136719 14.949219 L 77.5625 14.949219 L 77.5625 27.867188 L 74.988281 27.867188 L 74.988281 14.949219 L 72.414062 14.949219 L 72.414062 33.035156 L 77.5625 33.035156 L 77.5625 61.449219 L 80.136719 61.449219 L 80.136719 33.035156 L 85.289062 33.035156 L 85.289062 14.949219 Z M 82.714844 14.949219 " fill-opacity="1" fill-rule="nonzero"/></g><g fill="#ffc30e" fill-opacity="1"><g transform="translate(113.519405, 59.596151)"><g><path d="M 0.6875 -43.3125 C 0.6875 -43.519531 1.597656 -43.71875 3.421875 -43.90625 C 5.253906 -44.101562 6.757812 -44.203125 7.9375 -44.203125 C 12.601562 -44.203125 15.039062 -43.59375 15.25 -42.375 L 20.671875 -14.625 L 25.78125 -42.375 C 26.039062 -43.59375 28.648438 -44.203125 33.609375 -44.203125 C 34.828125 -44.203125 36.359375 -44.113281 38.203125 -43.9375 C 40.054688 -43.769531 40.984375 -43.582031 40.984375 -43.375 L 29.828125 -1.640625 C 29.648438 -0.960938 28.40625 -0.519531 26.09375 -0.3125 C 22.53125 0.0625 19.285156 0.132812 16.359375 -0.09375 C 13.441406 -0.320312 11.898438 -0.734375 11.734375 -1.328125 Z M 0.6875 -43.3125 "/></g></g></g><g fill="#ffc30e" fill-opacity="1"><g transform="translate(153.985506, 59.596151)"><g><path d="M 22.125 -1.015625 C 22.125 -0.171875 20.039062 0.25 15.875 0.25 C 11.71875 0.25 9.640625 -0.171875 9.640625 -1.015625 L 9.640625 -32.65625 L 2.078125 -32.65625 C 1.367188 -32.65625 0.863281 -33.625 0.5625 -35.5625 C 0.4375 -36.488281 0.375 -37.429688 0.375 -38.390625 C 0.375 -39.359375 0.4375 -40.304688 0.5625 -41.234375 C 0.863281 -43.171875 1.367188 -44.140625 2.078125 -44.140625 L 29.5 -44.140625 C 30.21875 -44.140625 30.722656 -43.171875 31.015625 -41.234375 C 31.140625 -40.304688 31.203125 -39.359375 31.203125 -38.390625 C 31.203125 -37.429688 31.140625 -36.488281 31.015625 -35.5625 C 30.722656 -33.625 30.21875 -32.65625 29.5 -32.65625 L 22.125 -32.65625 Z M 22.125 -1.015625 "/></g></g></g><g fill="#ffc30e" fill-opacity="1"><g transform="translate(184.429565, 59.596151)"><g><path d="M 26.734375 -44.140625 C 27.441406 -44.140625 27.796875 -42.273438 27.796875 -38.546875 C 27.796875 -34.828125 27.441406 -32.96875 26.734375 -32.96875 L 15.1875 -32.96875 L 15.1875 -25.78125 L 22.890625 -25.78125 C 23.597656 -25.78125 23.953125 -24.148438 23.953125 -20.890625 C 23.953125 -17.640625 23.617188 -16.015625 22.953125 -16.015625 L 15.1875 -16.015625 L 15.1875 -0.8125 C 15.1875 -0.226562 14.398438 0.15625 12.828125 0.34375 C 11.253906 0.53125 9.941406 0.625 8.890625 0.625 L 5.921875 0.5 C 3.867188 0.25 2.84375 -0.164062 2.84375 -0.75 L 2.84375 -42.5 C 2.84375 -43.164062 2.976562 -43.601562 3.25 -43.8125 C 3.519531 -44.03125 3.925781 -44.140625 4.46875 -44.140625 Z M 26.734375 -44.140625 "/></g></g></g><g fill="#ffc30e" fill-opacity="1"><g transform="translate(212.982681, 59.596151)"><g><path d="M 21.90625 0.625 C 16 0.625 11.1875 -1.304688 7.46875 -5.171875 C 3.75 -9.035156 1.890625 -14.675781 1.890625 -22.09375 C 1.890625 -29.507812 3.769531 -35.128906 7.53125 -38.953125 C 11.289062 -42.785156 16.144531 -44.703125 22.09375 -44.703125 C 28.039062 -44.703125 32.84375 -42.820312 36.5 -39.0625 C 40.15625 -35.300781 41.984375 -29.601562 41.984375 -21.96875 C 41.984375 -14.34375 40.113281 -8.671875 36.375 -4.953125 C 32.632812 -1.234375 27.8125 0.625 21.90625 0.625 Z M 21.9375 -32.59375 C 19.925781 -32.59375 18.234375 -31.664062 16.859375 -29.8125 C 15.492188 -27.96875 14.8125 -25.375 14.8125 -22.03125 C 14.8125 -18.6875 15.460938 -16.117188 16.765625 -14.328125 C 18.066406 -12.546875 19.78125 -11.65625 21.90625 -11.65625 C 24.03125 -11.65625 25.753906 -12.554688 27.078125 -14.359375 C 28.398438 -16.171875 29.0625 -18.757812 29.0625 -22.125 C 29.0625 -25.488281 28.378906 -28.070312 27.015625 -29.875 C 25.648438 -31.6875 23.957031 -32.59375 21.9375 -32.59375 Z M 21.9375 -32.59375 "/></g></g></g><g fill="#ffc30e" fill-opacity="1"><g transform="translate(255.654879, 59.596151)"><g><path d="M 21.90625 0.625 C 16 0.625 11.1875 -1.304688 7.46875 -5.171875 C 3.75 -9.035156 1.890625 -14.675781 1.890625 -22.09375 C 1.890625 -29.507812 3.769531 -35.128906 7.53125 -38.953125 C 11.289062 -42.785156 16.144531 -44.703125 22.09375 -44.703125 C 28.039062 -44.703125 32.84375 -42.820312 36.5 -39.0625 C 40.15625 -35.300781 41.984375 -29.601562 41.984375 -21.96875 C 41.984375 -14.34375 40.113281 -8.671875 36.375 -4.953125 C 32.632812 -1.234375 27.8125 0.625 21.90625 0.625 Z M 21.9375 -32.59375 C 19.925781 -32.59375 18.234375 -31.664062 16.859375 -29.8125 C 15.492188 -27.96875 14.8125 -25.375 14.8125 -22.03125 C 14.8125 -18.6875 15.460938 -16.117188 16.765625 -14.328125 C 18.066406 -12.546875 19.78125 -11.65625 21.90625 -11.65625 C 24.03125 -11.65625 25.753906 -12.554688 27.078125 -14.359375 C 28.398438 -16.171875 29.0625 -18.757812 29.0625 -22.125 C 29.0625 -25.488281 28.378906 -28.070312 27.015625 -29.875 C 25.648438 -31.6875 23.957031 -32.59375 21.9375 -32.59375 Z M 21.9375 -32.59375 "/></g></g></g><g fill="#ffc30e" fill-opacity="1"><g transform="translate(298.327077, 59.596151)"><g><path d="M 3.15625 -2.90625 L 3.15625 -40.734375 C 3.15625 -41.773438 3.414062 -42.601562 3.9375 -43.21875 C 4.46875 -43.832031 5.148438 -44.140625 5.984375 -44.140625 L 16.515625 -44.140625 C 23.203125 -44.140625 28.28125 -42.457031 31.75 -39.09375 C 35.21875 -35.726562 36.953125 -30.429688 36.953125 -23.203125 C 36.953125 -7.734375 30.351562 0 17.15625 0 L 6.375 0 C 4.226562 0 3.15625 -0.96875 3.15625 -2.90625 Z M 15.25 -32.15625 L 15.25 -13.296875 C 15.25 -12.421875 15.3125 -11.863281 15.4375 -11.625 C 15.570312 -11.394531 15.953125 -11.28125 16.578125 -11.28125 C 18.890625 -11.28125 20.644531 -12.140625 21.84375 -13.859375 C 23.039062 -15.585938 23.640625 -18.457031 23.640625 -22.46875 C 23.640625 -26.488281 23.019531 -29.109375 21.78125 -30.328125 C 20.539062 -31.546875 18.578125 -32.15625 15.890625 -32.15625 Z M 15.25 -32.15625 "/></g></g></g></svg>